PathFileType	4	(X/Y/Z)	61_1_26_p0_0-1086_filt_butterworth.trc
DataRate	CameraRate	NumFrames	NumMarkers	Units	OrigDataRate	OrigDataStartFrame	OrigNumFrames
47.0	47.0	5	27	m	47.0	543	1086
Frame#	Time	RHip			RKnee			RAnkle			RBigToe			RSmallToe			RHeel			LHip			LKnee			LAnkle			LBigToe			LSmallToe			LHeel			Neck			Head			Nose			RShoulder			RElbow			RWrist			RThumb			RIndex			RPinky			LShoulder			LElbow			LWrist			LThumb			LIndex			LPinky			
		X1	Y1	Z1	X2	Y2	Z2	X3	Y3	Z3	X4	Y4	Z4	X5	Y5	Z5	X6	Y6	Z6	X7	Y7	Z7	X8	Y8	Z8	X9	Y9	Z9	X10	Y10	Z10	X11	Y11	Z11	X12	Y12	Z12	X13	Y13	Z13	X14	Y14	Z14	X15	Y15	Z15	X16	Y16	Z16	X17	Y17	Z17	X18	Y18	Z18	X19	Y19	Z19	X20	Y20	Z20	X21	Y21	Z21	X22	Y22	Z22	X23	Y23	Z23	X24	Y24	Z24	X25	Y25	Z25	X26	Y26	Z26	X27	Y27	Z27	
543	11.5531914893617	0.3535899992037725	0.7269865905888784	0.7716662784119822	0.3848269081620792	0.3056727527548402	0.7481390515924945	0.3933646961649282	-0.11255256886727345	0.7323530340093563	0.41860982251139045	-0.09721194694202807	0.5692930729979852	0.4565682153644085	-0.12926982020615263	0.6302942890499639	0.33768639535883643	-0.18393375014665433	0.7892317745343612	0.1952300406671561	0.7566022097524245	0.65378044604405	0.15197331078005558	0.30734776770519157	0.6746347136676123	0.11510715141366056	-0.10121466025651954	0.6814655255793217	0.14989690518399482	-0.14274491171958983	0.6111468740585373	0.09002414173909391	-0.148604748174682	0.6230098660218449	0.10268103414212681	-0.15216863693513394	0.7214526740885837	0.3564171666567809	1.2680786322050297	0.6203804415470349	0.4048446369081719	1.5115255449319966	0.5814597185824303	0.4813808775412675	1.3912715816929342	0.5663904526011598	0.4407578421625654	1.2001074498096789	0.7314332919188306	0.42322881324643147	0.9759411861115003	0.8896808132291674	0.49941119222160946	0.8976226072540134	1.0120009790562374	0.546569697122291	0.8475541551414396	1.10323734873902	0.5189658255719397	0.8134714162357182	1.181260660068634	0.5046041061255256	0.7933223728484989	1.170409963730158	0.236834810619965	1.2144327869811014	0.521203690872118	0.1938882962485634	0.9932366025952877	0.4667962828405857	0.3435239724808181	0.8514634858261982	0.37928543452430596	0.4252850961873863	0.7944976157277485	0.3825952807460152	0.43060626993552414	0.778154055643755	0.35196190155962537	0.37731491854231797	0.7580327012764615	0.3670230904867529	
544	11.574468085106384	0.35808061923843737	0.7252912547306714	0.7688398011684814	0.38632559697054236	0.30305558412205913	0.7496268620889487	0.3942783970181733	-0.11845113141241803	0.7368928056677353	0.4189732940182759	-0.09887841195531899	0.5715554968788467	0.4557426501006142	-0.1320018625344411	0.6318797478427902	0.3378565725083818	-0.19079829160221376	0.7952225194016299	0.19711840510344036	0.7550032175846316	0.6570203923156788	0.15396558131333107	0.30426726996641495	0.6796521415696617	0.11466816043638439	-0.10163646218042038	0.6824162295480043	0.14939038538282645	-0.14341298494445748	0.6123582405734821	0.08910043756330305	-0.15045596990592056	0.6260145067699285	0.10293696519061296	-0.15153789246860977	0.7199356649188308	0.3599174892607897	1.2679237649847115	0.6206639516317287	0.4094348872201892	1.5096520258597985	0.5822298153987182	0.4851009261239785	1.388502193111113	0.5629464265769971	0.45408288948646747	1.1974704559549658	0.731833031082044	0.4407890524847353	0.9730782956031402	0.8649149379111216	0.5173472558727987	0.8710951966752261	0.9875592192386591	0.5691533972147537	0.8113617442210723	1.078880715248784	0.5513252503529178	0.7859834724840379	1.1290434993514014	0.5324639341991138	0.7584969828520024	1.1282302412486411	0.23957077052561526	1.2165638003974892	0.5226802638885065	0.20079262673393405	0.9948270450421686	0.4809439766180367	0.364641649184558	0.863021077777026	0.4032993397266332	0.44926345224909425	0.8049880892816249	0.4183956387286812	0.4575211931458797	0.7885842234226158	0.3895983923754027	0.40234935676775296	0.7646030657006138	0.40811039014295497	
545	11.595744680851064	0.36291563919701336	0.7235228066782233	0.7647119334632244	0.3877884334908662	0.30089924211457764	0.7496911847312259	0.39541009611498645	-0.1243233789950228	0.7412982790377609	0.41912524045037536	-0.10112851150990812	0.5761781278220938	0.45497671365271675	-0.13488717044997833	0.6334931801418542	0.3385369508040634	-0.1978391607705119	0.8012793483678635	0.1990633797498933	0.7534550489060869	0.6598906187567966	0.1558903827559668	0.3015125133535128	0.6847991708509555	0.11437025398090574	-0.10197026983362431	0.6834030117950549	0.14942814833807902	-0.14362530544226298	0.6125915141748428	0.0892083868856132	-0.15098891149983826	0.6270190714977606	0.10325073404792035	-0.1511019246233968	0.7189788151066867	0.363776831338206	1.2671909796421357	0.6213915746024203	0.41421907650283546	1.5080682056943433	0.5834847806164772	0.48702081530988456	1.3855034780507631	0.5600413206407086	0.467967784079546	1.1948188514370557	0.7327332926899787	0.4594905861830639	0.9684273798465877	0.8387405873532611	0.5384442905832912	0.8470611909577608	0.9559049976790923	0.5956930555066662	0.7783193763168854	1.0440850033580746	0.5879706021547928	0.7614129586124788	1.0675354560010375	0.5651335569120002	0.728335698003645	1.0768746469139439	0.24209198269131266	1.219003596806334	0.5250073077938662	0.20607663133796533	0.9961838628890013	0.497708525840996	0.3806486988141041	0.8736511509073479	0.4279475895490654	0.46659731020833817	0.8127406791717927	0.45623158762262195	0.47843977384349845	0.796373757904255	0.43110893761421387	0.42172245624197224	0.772205117713118	0.4474054151268113	
546	11.617021276595745	0.3680462768654452	0.7217255264923972	0.7595626966541297	0.38919327521633956	0.299247579612721	0.7483126850085579	0.396718501969743	-0.12997404766396342	0.7453484961792596	0.4199729249653825	-0.10151967416846341	0.5784841927907939	0.4550054321129539	-0.1374046812265118	0.6339129121863873	0.33960023690946745	-0.20437360612089217	0.8066852171732937	0.2012778426593791	0.752126301309799	0.6622692669858294	0.15799185206715055	0.29934433230650576	0.6893146464208489	0.11429865815159408	-0.10206896421745665	0.6839148709604775	0.150617510729021	-0.14271259583254503	0.6104262486830115	0.09054921387029521	-0.15015598562396287	0.6253692274127529	0.10349670548170405	-0.15069051979312928	0.7180201969941853	0.3682426024346014	1.2658946311520607	0.6227317039423284	0.4185340779453659	1.5071623252129875	0.585322539106108	0.4868640450211034	1.3826008936580059	0.556195959088863	0.4806116540620873	1.1922270240043138	0.7342319510824011	0.47667632550957245	0.9611264168124629	0.8150951596046985	0.5603682905328403	0.8258791528584506	0.9201304988691643	0.624357305598751	0.7486419367142275	1.0021599225318572	0.625123841178904	0.7384968921137149	1.004072030364865	0.5993997919980583	0.7028066203830137	1.0201106872294496	0.24411738055894616	1.2213544373664353	0.5280822701190173	0.20847362604059433	0.9975472806992263	0.5148589583550378	0.3914782092340323	0.8832908551683701	0.44955440126549634	0.4785283094143322	0.8191281112527485	0.49094445199413994	0.4933275023626858	0.8030178627185364	0.46939447889692665	0.4358595034875751	0.7809720900120481	0.47882381447441125	
547	11.638297872340424	0.37351046135958726	0.7196352473169747	0.7540968853703856	0.390586731763884	0.29834662698616055	0.7451987590096312	0.39815736752231246	-0.13519383072475238	0.7489226907747312	0.4208934516291716	-0.10132844521889767	0.5782847919169434	0.4563330710014309	-0.1396684079489911	0.6332536395687013	0.3411895443962212	-0.21027700250577674	0.8115292920118807	0.2038610100346279	0.750897293858106	0.6638610900949539	0.16057312410508537	0.2980374638818973	0.6921233634390097	0.11462471117406121	-0.10154448533285038	0.6834477495928639	0.15257644674323795	-0.14085456688003373	0.6070078910752658	0.09292276864591399	-0.14857123324292554	0.6220427552384117	0.1037063697622766	-0.14997445850185023	0.7165071928504734	0.3732408070089287	1.2644570710742364	0.6244101963695929	0.4218475099782082	1.5069678755984481	0.5879116232416226	0.4848476467243998	1.3804153893070839	0.5510595795969415	0.4908739233407784	1.189438798712126	0.7356493636256032	0.49021340712799377	0.9507901098591631	0.7966181358637324	0.5818236018751626	0.8078689161020547	0.8811223485185791	0.6536770367975304	0.7219074208469816	0.9561421555009775	0.6590813959997289	0.7154789407468877	0.9465392067435503	0.6310007958545364	0.6823523308819933	0.9602677837888339	0.24549365289751285	1.2233454040356326	0.5326121620956208	0.20775963168187003	0.9986331947339876	0.5304738389551913	0.3978015080345994	0.8921303343004702	0.465732833055688	0.4857548222994549	0.8250811337367462	0.5192903992950757	0.5023003988556682	0.8094832451914358	0.5006643638026561	0.4459834327411597	0.7905226440213287	0.4993660574982274	
